<svg xmlns="http://www.w3.org/2000/svg" viewBox="0 0 107 32">
  <g fill="none">
    <g fill="#000">
      <path d="M98.48 0H8.525c-.328 0-.652 0-.98.002-.273.001-.545.006-.82.01-.601.006-1.2.053-1.793.141a6.483 6.483 0 0 0-1.7.502 5.793 5.793 0 0 0-1.447.943A5.07 5.07 0 0 0 .732 2.895a4.93 4.93 0 0 0-.56 1.522 9.486 9.486 0 0 0-.16 1.602c-.008.245-.009.491-.013.737v18.491c.004.248.005.489.014.738.007.536.06 1.072.16 1.601.098.53.287 1.044.559 1.523.27.479.626.915 1.053 1.292.423.382.912.7 1.448.943a6.542 6.542 0 0 0 1.7.505c.592.087 1.19.134 1.791.14.276.006.548.01.822.01l.979.001h89.953l.97-.001c.272 0 .551-.004.824-.01.6-.006 1.197-.053 1.788-.14a6.585 6.585 0 0 0 1.706-.505 5.618 5.618 0 0 0 1.446-.943 5.166 5.166 0 0 0 1.057-1.292c.27-.48.457-.993.554-1.523.1-.53.155-1.065.166-1.601.003-.249.003-.49.003-.738.007-.29.007-.58.007-.875V7.629c0-.293 0-.584-.007-.873 0-.246 0-.492-.003-.737a9.814 9.814 0 0 0-.166-1.602 4.917 4.917 0 0 0-.554-1.522c-.552-.963-1.427-1.746-2.503-2.24a6.541 6.541 0 0 0-1.706-.502 13.032 13.032 0 0 0-1.788-.141c-.273-.004-.552-.009-.825-.01C99.128 0 98.801 0 98.48 0z"/>
      <path d="M6.756 31.3c-.244 0-.482-.003-.724-.008-.5-.007-1-.05-1.495-.13a4.696 4.696 0 0 1-1.325-.44 4.302 4.302 0 0 1-1.118-.813 4.236 4.236 0 0 1-.816-1.117 4.592 4.592 0 0 1-.435-1.325 9.93 9.93 0 0 1-.133-1.5c-.005-.17-.012-.731-.012-.731V6.756s.007-.554.012-.716c.006-.502.05-1.003.133-1.498.076-.462.223-.91.434-1.33.209-.414.483-.791.812-1.118a4.49 4.49 0 0 1 1.122-.818c.417-.21.863-.357 1.323-.435.496-.081.998-.125 1.5-.131L6.756.7h94.215l.73.01c.499.006.996.05 1.487.13.465.08.916.227 1.337.439a4.466 4.466 0 0 1 1.932 1.936c.208.415.353.86.428 1.319.083.499.13 1.003.14 1.51.002.226.002.47.002.712.006.3.006.585.006.873v16.743c0 .29 0 .574-.006.86 0 .26 0 .499-.004.744-.009.497-.055.992-.136 1.483-.075.465-.22.915-.432 1.336-.211.41-.485.784-.813 1.108a4.337 4.337 0 0 1-1.12.818 4.69 4.69 0 0 1-1.334.44c-.494.08-.994.124-1.495.13-.234.006-.48.01-.718.01H6.756z"/>
    </g>
    <path fill="#FFF" d="M22.718 15.48a4.617 4.617 0 0 1 2.2-3.875 4.73 4.73 0 0 0-3.726-2.013c-1.567-.165-3.087.937-3.885.937-.814 0-2.044-.921-3.368-.894a4.96 4.96 0 0 0-4.175 2.546c-1.805 3.125-.459 7.718 1.27 10.244.866 1.237 1.877 2.62 3.2 2.57 1.294-.053 1.778-.825 3.34-.825 1.548 0 2.002.825 3.352.794 1.39-.022 2.264-1.242 3.1-2.491a10.278 10.278 0 0 0 1.416-2.886 4.463 4.463 0 0 1-2.724-4.106zm-2.55-7.55a4.548 4.548 0 0 0 1.04-3.258 4.625 4.625 0 0 0-2.993 1.55 4.327 4.327 0 0 0-1.068 3.137 3.826 3.826 0 0 0 3.021-1.429zm19.674 13.782h-3.787l-.91 2.685h-1.602l3.586-9.935h1.666l3.587 9.935H40.75l-.908-2.685zm-3.395-1.24h3.003l-1.48-4.357h-.041l-1.48 4.358zm13.681.304c0 2.25-1.205 3.697-3.023 3.697a2.455 2.455 0 0 1-2.279-1.268h-.034v3.588h-1.487v-9.64h1.44v1.207h.027a2.565 2.565 0 0 1 2.306-1.28c1.838 0 3.05 1.452 3.05 3.697zm-1.528 0c0-1.467-.758-2.43-1.914-2.43-1.136 0-1.9.984-1.9 2.43 0 1.46.764 2.437 1.9 2.437 1.156 0 1.914-.958 1.914-2.437zm9.5 0c0 2.25-1.205 3.697-3.023 3.697a2.455 2.455 0 0 1-2.279-1.268h-.034v3.588h-1.487v-9.64h1.439v1.207h.027a2.567 2.567 0 0 1 2.307-1.28c1.838 0 3.05 1.452 3.05 3.697zm-1.528 0c0-1.467-.758-2.43-1.915-2.43-1.136 0-1.9.984-1.9 2.43 0 1.46.764 2.437 1.9 2.437 1.157 0 1.915-.958 1.915-2.437zm6.796.853c.11.985 1.068 1.632 2.375 1.632 1.254 0 2.155-.647 2.155-1.535 0-.771-.544-1.233-1.831-1.55l-1.288-.31c-1.824-.44-2.67-1.293-2.67-2.678 0-1.714 1.493-2.891 3.614-2.891 2.1 0 3.538 1.177 3.587 2.891h-1.501c-.09-.991-.91-1.59-2.107-1.59-1.198 0-2.017.606-2.017 1.487 0 .702.523 1.116 1.804 1.432l1.094.269c2.038.482 2.885 1.3 2.885 2.754 0 1.858-1.48 3.022-3.835 3.022-2.203 0-3.69-1.136-3.787-2.933h1.522zm9.309-6.189v1.714h1.377v1.176h-1.377v3.993c0 .62.276.91.881.91.164-.003.327-.015.49-.035v1.17c-.273.051-.55.074-.827.07-1.466 0-2.038-.552-2.038-1.956V18.33H70.13v-1.176h1.053V15.44h1.494zm2.175 5.336c0-2.28 1.342-3.711 3.435-3.711 2.1 0 3.436 1.432 3.436 3.71 0 2.286-1.329 3.712-3.436 3.712-2.106 0-3.435-1.426-3.435-3.711zm5.356 0c0-1.563-.716-2.486-1.92-2.486-1.206 0-1.921.93-1.921 2.486 0 1.57.715 2.485 1.92 2.485s1.921-.916 1.921-2.485zm2.741-3.622h1.418v1.233h.034a1.728 1.728 0 0 1 1.742-1.309c.172 0 .343.018.51.056v1.39a2.1 2.1 0 0 0-.668-.09 1.5 1.5 0 0 0-1.549 1.667v4.296h-1.487v-7.243zm10.558 5.116c-.2 1.314-1.48 2.217-3.118 2.217-2.107 0-3.415-1.412-3.415-3.677 0-2.272 1.315-3.745 3.352-3.745 2.004 0 3.264 1.376 3.264 3.572v.51h-5.115v.09a1.886 1.886 0 0 0 1.948 2.051 1.638 1.638 0 0 0 1.673-1.018h1.411zm-5.025-2.162h3.62a1.736 1.736 0 0 0-.486-1.307 1.736 1.736 0 0 0-1.29-.531 1.836 1.836 0 0 0-1.845 1.838zM35.39 9.003h.639a.805.805 0 0 0 .9-.761c0-.44-.331-.725-.893-.725a.855.855 0 0 0-.64.17.858.858 0 0 0-.323.578h-.701a1.494 1.494 0 0 1 1.687-1.396c.94 0 1.601.526 1.601 1.283.005.523-.357.978-.867 1.092V9.3a1.113 1.113 0 0 1 1.062 1.155 1.597 1.597 0 0 1-1.783 1.419 1.587 1.587 0 0 1-1.793-1.413h.711c.043.457.462.752 1.08.752.62 0 1.024-.331 1.024-.798 0-.473-.38-.764-1.046-.764h-.658v-.648zm3.273 1.737c0-.649.484-1.023 1.34-1.076l.976-.056v-.311c0-.38-.25-.595-.738-.595-.396 0-.67.145-.75.4h-.689c.073-.619.656-1.016 1.473-1.016.903 0 1.413.45 1.413 1.21v2.462h-.686v-.506h-.056c-.232.37-.646.586-1.082.566a1.085 1.085 0 0 1-1.2-1.079zm2.316-.308v-.302l-.88.057c-.496.033-.72.202-.72.52 0 .323.28.512.667.512a.85.85 0 0 0 .933-.787zm2.595-1.678v3.004h-.711V8.156h2.372v.598zm5.97 1.201c0 1.145-.58 1.863-1.489 1.863a1.176 1.176 0 0 1-1.108-.605h-.056v1.743h-.711v-4.8h.684v.595h.053a1.253 1.253 0 0 1 1.131-.655c.917 0 1.496.715 1.496 1.86zm-.731 0c0-.76-.36-1.22-.963-1.22-.598 0-.973.47-.973 1.224 0 .75.375 1.22.97 1.22.605 0 .966-.46.966-1.224zm1.677 3.093v-.612c.078.01.155.015.233.014a.617.617 0 0 0 .651-.503l.053-.176-1.304-3.615h.775l.903 2.861h.056l.9-2.861h.754l-1.343 3.751c-.308.877-.648 1.158-1.383 1.158a3 3 0 0 1-.294-.017zm3.575-2.312h.708c.07.318.367.483.783.483.474 0 .764-.208.764-.533 0-.347-.26-.513-.764-.513h-.539v-.552h.53c.43 0 .648-.165.648-.466 0-.265-.211-.467-.648-.467-.398 0-.688.17-.735.453h-.685a1.263 1.263 0 0 1 1.42-1.055c.856 0 1.346.387 1.346.996a.74.74 0 0 1-.569.738v.056c.407.052.71.4.705.81 0 .685-.583 1.138-1.473 1.138-.786 0-1.426-.36-1.491-1.088zm3.988 1.022V8.156h.704v2.478h.057l1.66-2.478h.705v3.602h-.705V9.267h-.053l-1.664 2.491zm7.008-3.004h-1.135v3.004h-.712V8.754H62.08v-.598h2.981zm3.829 2.032a1.464 1.464 0 0 1-1.561 1.042 1.64 1.64 0 0 1-1.665-1.86 1.668 1.668 0 0 1 .401-1.32c.32-.36.779-.566 1.26-.562 1.003 0 1.608.685 1.608 1.816v.248H66.39v.04a.955.955 0 0 0 .96 1.032.861.861 0 0 0 .856-.436h.685zm-2.5-1.161h1.818a.868.868 0 0 0-.886-.933.922.922 0 0 0-.933.933zm5.514-1.469h1.625c.704 0 1.117.357 1.117.916a.771.771 0 0 1-.608.76v.057a.822.822 0 0 1 .77.83c0 .629-.472 1.04-1.263 1.04h-1.64V8.155zm.705.546v.932h.705c.43 0 .635-.165.635-.47 0-.28-.18-.462-.556-.462h-.784zm0 1.455v1.056h.843c.42 0 .645-.186.645-.527 0-.36-.254-.529-.734-.529h-.754z"/>
  </g>
</svg>
