<?xml version="1.0" encoding="UTF-8"?>
<!-- Generated by Pixelmator Pro 3.0 -->
<svg width="24" height="24" viewBox="0 0 24 24" xmlns="http://www.w3.org/2000/svg" xmlns:xlink="http://www.w3.org/1999/xlink">
    <path id="path1" fill="#faddad" stroke="none" d="M 15.71 12.71 C 17.719648 11.128874 18.506393 8.447815 17.669786 6.031467 C 16.833181 3.61512 14.557077 1.994505 12 1.994505 C 9.442923 1.994505 7.166819 3.61512 6.330213 6.031467 C 5.493607 8.447815 6.280352 11.128874 8.29 12.71 C 4.867097 14.081347 2.476617 17.225096 2.07 20.889999 C 2.009249 21.442286 2.407715 21.939249 2.96 22 C 3.512285 22.060751 4.009249 21.662285 4.07 21.110001 C 4.524631 17.062742 7.947287 14.003029 12.02 14.003029 C 16.092712 14.003029 19.515369 17.062742 19.969999 21.110001 C 20.026316 21.618935 20.457968 22.003107 20.969999 22 L 21.08 22 C 21.625641 21.937218 22.018524 21.446114 21.959999 20.9 C 21.551418 17.22431 19.147514 14.074235 15.71 12.71 Z M 12 12 C 9.790861 12 8 10.209139 8 8 C 8 5.790861 9.790861 4 12 4 C 14.209139 4 16 5.790861 16 8 C 16 10.209139 14.209139 12 12 12 Z"/>
</svg>
