<svg xmlns="http://www.w3.org/2000/svg" viewBox="0 0 107 32">
  <defs>
    <linearGradient id="r33l4yb88a" x1="61.027%" x2="26.5%" y1="4.947%" y2="71.916%">
      <stop offset="0%" stop-color="#00A0FF"/>
      <stop offset=".657%" stop-color="#00A1FF"/>
      <stop offset="26.01%" stop-color="#00BEFF"/>
      <stop offset="51.22%" stop-color="#00D2FF"/>
      <stop offset="76.04%" stop-color="#00DFFF"/>
      <stop offset="100%" stop-color="#00E3FF"/>
    </linearGradient>
    <linearGradient id="95i34rzfub" x1="107.622%" x2="-130.536%" y1="50.016%" y2="50.016%">
      <stop offset="0%" stop-color="#FFE000"/>
      <stop offset="40.87%" stop-color="#FFBD00"/>
      <stop offset="77.54%" stop-color="orange"/>
      <stop offset="100%" stop-color="#FF9C00"/>
    </linearGradient>
    <linearGradient id="p1gt51lppc" x1="86.253%" x2="-50.188%" y1="30.897%" y2="136.081%">
      <stop offset="0%" stop-color="#FF3A44"/>
      <stop offset="100%" stop-color="#C31162"/>
    </linearGradient>
    <linearGradient id="l9w77hlwcd" x1="-18.77%" x2="42.12%" y1="-11.832%" y2="35.081%">
      <stop offset="0%" stop-color="#32A071"/>
      <stop offset="6.85%" stop-color="#2DA771"/>
      <stop offset="47.62%" stop-color="#15CF74"/>
      <stop offset="80.09%" stop-color="#06E775"/>
      <stop offset="100%" stop-color="#00F076"/>
    </linearGradient>
  </defs>
  <g fill="none">
    <path fill="#000" d="M103 32H4c-2.2 0-4-1.8-4-4V4c0-2.2 1.8-4 4-4h99c2.2 0 4 1.8 4 4v24c0 2.2-1.8 4-4 4z"/>
    <path d="M104 .64A3.36 3.36 0 0 1 107.36 4v24a3.36 3.36 0 0 1-3.36 3.36H4A3.36 3.36 0 0 1 .64 28V4A3.36 3.36 0 0 1 4 .64h100m0-.64H4C1.8 0 0 1.8 0 4v24c0 2.2 1.8 4 4 4h100c2.2 0 4-1.8 4-4V4c0-2.2-1.8-4-4-4z"/>
    <path fill="#FFF" d="M54.512 17.4c-1.88 0-3.416 1.432-3.416 3.4 0 1.96 1.536 3.4 3.416 3.4s3.416-1.44 3.416-3.4c0-1.968-1.536-3.4-3.416-3.4zm0 5.464c-1.032 0-1.92-.848-1.92-2.064 0-1.224.888-2.064 1.92-2.064s1.92.84 1.92 2.064c0 1.216-.896 2.064-1.92 2.064zM47.056 17.4c-1.88 0-3.416 1.432-3.416 3.4 0 1.96 1.536 3.4 3.416 3.4s3.416-1.44 3.416-3.4c0-1.968-1.536-3.4-3.416-3.4zm0 5.464c-1.032 0-1.92-.848-1.92-2.064 0-1.224.888-2.064 1.92-2.064s1.92.84 1.92 2.064c0 1.216-.888 2.064-1.92 2.064zm-8.864-4.416v1.44h3.456c-.104.808-.376 1.408-.784 1.816-.504.504-1.288 1.056-2.664 1.056-2.128 0-3.792-1.712-3.792-3.84s1.664-3.84 3.792-3.84c1.144 0 1.984.448 2.6 1.032l1.016-1.016c-.864-.824-2.008-1.456-3.624-1.456-2.912 0-5.36 2.368-5.36 5.288 0 2.912 2.448 5.288 5.36 5.288 1.576 0 2.76-.512 3.688-1.48.952-.952 1.248-2.296 1.248-3.376 0-.336-.024-.648-.08-.904h-4.856v-.008zm36.248 1.12c-.28-.76-1.144-2.168-2.912-2.168-1.752 0-3.208 1.376-3.208 3.4 0 1.904 1.44 3.4 3.376 3.4 1.56 0 2.464-.952 2.832-1.504l-1.16-.776c-.384.568-.912.944-1.672.944-.76 0-1.304-.352-1.648-1.032l4.552-1.88-.16-.384zm-4.64 1.136c-.04-1.312 1.016-1.984 1.776-1.984.592 0 1.096.296 1.264.72l-3.04 1.264zM66.104 24H67.6V14h-1.496v10zm-2.448-5.84H63.6c-.336-.4-.976-.76-1.792-.76-1.704 0-3.264 1.496-3.264 3.416 0 1.904 1.56 3.392 3.264 3.392.808 0 1.456-.36 1.792-.776h.048v.488c0 1.304-.696 2-1.816 2-.912 0-1.48-.656-1.712-1.208l-1.304.544c.376.904 1.368 2.008 3.016 2.008 1.752 0 3.232-1.032 3.232-3.544v-6.112h-1.416v.552h.008zm-1.72 4.704c-1.032 0-1.896-.864-1.896-2.048 0-1.2.864-2.072 1.896-2.072 1.016 0 1.816.88 1.816 2.072.008 1.184-.792 2.048-1.816 2.048zM81.448 14h-3.576v10h1.496v-3.792h2.088c1.656 0 3.28-1.2 3.28-3.104 0-1.904-1.64-3.104-3.288-3.104zm.032 4.816h-2.12v-3.432h2.12c1.12 0 1.752.928 1.752 1.712 0 .784-.632 1.72-1.752 1.72zm9.232-1.432c-1.08 0-2.2.48-2.664 1.528l1.328.552c.28-.552.808-.736 1.36-.736.768 0 1.56.464 1.568 1.288v.104a3.341 3.341 0 0 0-1.56-.384c-1.432 0-2.88.784-2.88 2.248 0 1.336 1.168 2.2 2.48 2.2 1 0 1.56-.448 1.904-.976h.048v.776h1.44v-3.832c.008-1.776-1.32-2.768-3.024-2.768zm-.184 5.48c-.488 0-1.168-.248-1.168-.848 0-.768.848-1.064 1.584-1.064.656 0 .968.144 1.36.336a1.805 1.805 0 0 1-1.776 1.576zm8.464-5.264-1.712 4.336h-.048L95.456 17.6h-1.608l2.664 6.064-1.52 3.368h1.56l4.104-9.432h-1.664zM85.552 24h1.496V14h-1.496v10z"/>
    <path fill="url(#r33l4yb88a)" d="M1.152.432C.92.68.784 1.064.784 1.552v17.696c0 .496.136.88.368 1.12l.056.056 9.912-9.904v-.24L1.208.376l-.056.056z" transform="translate(7.2 5.6)"/>
    <path fill="url(#95i34rzfub)" d="M14.424 13.824 11.12 10.52v-.24l3.304-3.304.072.04 3.912 2.224c1.12.632 1.12 1.672 0 2.312l-3.912 2.224-.072.048z" transform="translate(7.2 5.6)"/>
    <path fill="url(#p1gt51lppc)" d="M14.496 13.776 11.12 10.4l-9.968 9.968c.368.392.976.44 1.664.048l11.68-6.64" transform="translate(7.2 5.6)"/>
    <path fill="url(#l9w77hlwcd)" d="M14.496 7.024 2.808.384C2.12-.008 1.512.04 1.144.432L11.12 10.4l3.376-3.376z" transform="translate(7.2 5.6)"/>
    <g fill="#000">
      <path d="m21.624 19.304-11.616 6.6c-.648.368-1.232.344-1.6.008l-.056.056.056.056c.376.336.952.36 1.6-.008l11.688-6.64-.072-.072z" opacity=".2"/>
      <path d="M8.352 25.856c-.232-.248-.368-.632-.368-1.12v.12c0 .496.136.88.368 1.12l.056-.056-.056-.064z" opacity=".12"/>
    </g>
    <path fill="#000" d="m25.608 17.04-3.992 2.264.072.072 3.912-2.224c.56-.32.84-.736.84-1.152-.04.376-.32.752-.832 1.04z" opacity=".12"/>
    <path fill="#FFF" d="m10.008 6.096 15.6 8.864c.504.288.792.656.84 1.04 0-.416-.28-.84-.84-1.152l-15.6-8.864c-1.12-.632-2.032-.104-2.032 1.176v.12c0-1.288.92-1.816 2.032-1.184z" opacity=".25"/>
    <path fill="#FFF" stroke="#FFF" stroke-width=".5" d="M33.688 11.416h-.592V9.808h.472c.416-.36.616-.968.608-1.84V5.6h3.208v4.208h.536v1.608h-.592V10.4h-3.64v1.016zm1.112-3.44c.008.76-.144 1.368-.456 1.84h2.424V6.192H34.8v1.784zm7.928 1.8c-.472.488-1.056.728-1.76.728s-1.288-.24-1.76-.728-.704-1.08-.704-1.776.232-1.296.704-1.776c.472-.488 1.056-.728 1.76-.728.696 0 1.28.24 1.76.728.472.488.712 1.08.712 1.776 0 .704-.24 1.296-.712 1.776zm-3.064-.4c.352.36.792.536 1.304.536s.952-.176 1.304-.536c.352-.36.536-.816.536-1.376 0-.56-.176-1.016-.536-1.376-.352-.36-.792-.536-1.304-.536s-.952.176-1.304.536c-.352.36-.536.816-.536 1.376 0 .56.184 1.016.536 1.376zm6.88 1.128c-.704 0-1.296-.24-1.776-.72s-.72-1.072-.72-1.792.24-1.312.72-1.792 1.072-.72 1.776-.72c.72 0 1.312.264 1.76.784l-.432.416c-.328-.408-.768-.608-1.336-.608-.52 0-.968.176-1.328.528-.36.352-.536.816-.536 1.384s.176 1.032.536 1.384c.36.352.8.528 1.328.528.576 0 1.064-.232 1.472-.696l.432.432a2.299 2.299 0 0 1-.824.624 2.226 2.226 0 0 1-1.072.248zm4.4-.104h-.616V6.192h-1.344V5.6h3.296v.592h-1.344V10.4zm5.576-4.8-1.816 4.048c-.248.568-.624.856-1.12.856a1.27 1.27 0 0 1-.48-.104l.16-.568a.665.665 0 0 0 .32.088c.144 0 .256-.024.336-.08.08-.056.152-.16.216-.304l.176-.384L52.696 5.6h.728l1.184 2.752h.024l1.16-2.752h.728zm.696 4.8V5.6h3.472v4.8h-.616V6.192h-2.24V10.4zm4.568 0V5.6h.616v2.056h2.4V5.6h.616v4.8H64.8V8.232h-2.4V10.4zm8.664-.624c-.472.488-1.056.728-1.76.728s-1.288-.24-1.76-.728-.704-1.08-.704-1.776.232-1.296.704-1.776c.472-.488 1.056-.728 1.76-.728.696 0 1.28.24 1.76.728.472.488.712 1.08.712 1.776-.008.704-.24 1.296-.712 1.776zm-3.064-.4c.352.36.792.536 1.304.536s.952-.176 1.304-.536c.352-.36.536-.816.536-1.376 0-.56-.176-1.016-.536-1.376-.352-.36-.792-.536-1.304-.536s-.952.176-1.304.536c-.352.36-.536.816-.536 1.376 0 .56.176 1.016.536 1.376zm6.288 1.024V5.6h1.736c.376 0 .704.128.976.368.272.248.416.56.416.936 0 .232-.056.432-.176.6-.12.176-.272.304-.472.392v.024c.24.08.432.216.584.416.152.2.232.424.232.688 0 .392-.144.72-.432.976a1.502 1.502 0 0 1-1.024.392h-1.84v.008zm.616-2.744h1.12c.232 0 .416-.08.56-.232.144-.152.208-.32.208-.504s-.064-.352-.208-.504a.684.684 0 0 0-.536-.232h-1.144v1.472zm0 2.152h1.24c.24 0 .432-.08.576-.248.144-.168.224-.344.224-.544 0-.2-.072-.376-.232-.536a.795.795 0 0 0-.6-.248H74.28v1.576h.008z"/>
  </g>
</svg>
